# xmcd
#
# Track frame offsets: 
#        150
#        8695
#        18274
#        24867
#        35434
#        48989
#        61935
#        72125
#        80943
#        91804
#
# Disc length: 1351 seconds
#
# Revision: 0
# Processed by: cddbd v1.5.2PL0 Copyright (c) Steve Scherf et al.
# Submitted via: ExactAudioCopy v0.95b3
#
DISCID=6d05450a
DTITLE=Dave Clark Five  - 5 By 5 (American Version)
DYEAR=1900
DGENRE=
TTITLE0=Nineteen Days
TTITLE1=Something I've Always Wanted
TTITLE2=Little Bit Strong
TTITLE3=Bernadette
TTITLE4=Sitting Here Baby
TTITLE5=You Don't Want My Lovin'
TTITLE6=How Can I Tell You
TTITLE7=Picture of You
TTITLE8=Small Talk
TTITLE9=Pick Up Your Phone
EXTD=
EXTT0=
EXTT1=
EXTT2=
EXTT3=
EXTT4=
EXTT5=
EXTT6=
EXTT7=
EXTT8=
EXTT9=
PLAYORDER=
